<?xml version="1.0" encoding="UTF-8"?>
<svg width="800px" height="800px" version="1.1" viewBox="0 0 512 512" xml:space="preserve" xmlns="http://www.w3.org/2000/svg">
<circle cx="256" cy="256" r="256" fill="#273B7A"/>
<path d="m308.44 506.61c99.231-20.661 177.39-98.766 198.12-197.97l-132.02-132.31-148.37 100.99 17.613 17.613-106.63 40.431 171.28 171.24z" fill="#121149"/>
<linearGradient id="a" x1="55.498" x2="165.2" y1="423.87" y2="423.87" gradientTransform="matrix(1.7239 0 0 -1.7239 35.471 986.71)" gradientUnits="userSpaceOnUse">
	<stop stop-color="#F3F1E8" offset="0"/>
	<stop stop-color="#E3E0D0" offset="1"/>
</linearGradient>
<path d="m358.54 169.52h-205.08c-12.278 0-22.316 10.049-22.316 22.319v128.33c0 12.262 10.037 22.313 22.316 22.313h205.08c12.278 0 22.318-10.05 22.318-22.313v-128.32c0-12.269-10.04-22.32-22.318-22.32z" fill="url(#a)"/>
<g fill="#B5B4B0">
	<polygon points="255.07 289.8 162.11 340.14 162.26 342.48 256.16 291.87"/>
	<path d="m360.43 190.86-59.566 45.87-44.709 55.143 90.905 50.612h11.476c8.242 0 15.46-4.534 19.328-11.23l-7.697-51.131-9.737-89.264z"/>
</g>
<path d="m256.16 291.87 124.7-96.547v-3.481c0-12.271-10.038-22.319-22.318-22.319h-4.965l-94.441 80.618-98.256-80.618h-7.416c-12.278 0-22.316 10.049-22.316 22.319v128.33c0 12.262 10.037 22.313 22.316 22.313h8.801v-125.13l93.896 74.521z" fill="#DD4B40"/>
<path d="m380.86 320.16v-124.84l-33.794 26.164v120.99h11.476c12.278 2e-3 22.318-10.049 22.318-22.313z" fill="#A43026"/>
</svg>