<?xml version="1.0" encoding="UTF-8"?>
<svg width="800px" height="800px" viewBox="0 0 72 72" xmlns="http://www.w3.org/2000/svg">
<g fill-rule="evenodd">
<path d="m36 72c19.882 0 36-16.118 36-36s-16.118-36-36-36-36 16.118-36 36 16.118 36 36 36z" fill="#3E75C3"/>
<path d="m35.998 12c-13.252 0-23.998 10.787-23.998 24.097 0 10.644 6.876 19.675 16.414 22.862 1.2 0.22137 1.638-0.52256 1.638-1.1611 0-0.57226-0.021-2.0872-0.033-4.0977-6.6765 1.4562-8.085-3.2303-8.085-3.2303-1.0905-2.783-2.664-3.5239-2.664-3.5239-2.1795-1.4954 0.165-1.4653 0.165-1.4653 2.4075 0.17017 3.675 2.4833 3.675 2.4833 2.142 3.682 5.6175 2.6188 6.9855 2.0014 0.2175-1.5571 0.8385-2.6188 1.524-3.2212-5.3295-0.6084-10.932-2.6746-10.932-11.908 0-2.6309 0.9345-4.7814 2.4705-6.4665-0.2475-0.60991-1.071-3.0586 0.234-6.3762 0 0 2.016-0.64756 6.6 2.4698 1.9155-0.53461 3.9675-0.80116 6.009-0.8117 2.0385 0.010542 4.092 0.27709 6.009 0.8117 4.581-3.1173 6.5925-2.4698 6.5925-2.4698 1.3095 3.3176 0.486 5.7663 0.2385 6.3762 1.539 1.6852 2.4675 3.8356 2.4675 6.4665 0 9.2555-5.6115 11.293-10.958 11.889 0.861 0.74394 1.629 2.2137 1.629 4.4621 0 3.2212-0.03 5.819-0.03 6.6096 0 0.64454 0.432 1.3945 1.65 1.1581 9.5295-3.1926 16.4-12.218 16.4-22.859 0-13.31-10.746-24.097-24.002-24.097" fill="#FFF"/>
</g>
</svg>
