<?xml version="1.0" encoding="UTF-8"?>
<svg width="800px" height="800px" viewBox="0 0 48 48" xmlns="http://www.w3.org/2000/svg">
<circle cx="24" cy="24" r="20" fill="#C13584"/>
<path d="m24 14.162c3.2041 0 3.5837 0.0122 4.849 0.0699 1.17 0.0534 1.8054 0.2489 2.2283 0.4132 0.5601 0.2177 0.9598 0.4777 1.3797 0.8976 0.42 0.42 0.68 0.8197 0.8977 1.3798 0.1643 0.4229 0.3598 1.0583 0.4132 2.2282 0.0577 1.2654 0.0699 1.6449 0.0699 4.849 0 3.2042-0.0122 3.5837-0.0699 4.8491-0.0534 1.17-0.2489 1.8053-0.4132 2.2282-0.2177 0.5601-0.4777 0.9599-0.8976 1.3798-0.42 0.4199-0.8197 0.6799-1.3798 0.8976-0.4229 0.1644-1.0583 0.3598-2.2283 0.4132-1.2651 0.0577-1.6446 0.07-4.849 0.07s-3.5838-0.0123-4.849-0.07c-1.17-0.0534-1.8054-0.2488-2.2283-0.4132-0.5601-0.2177-0.9598-0.4777-1.3797-0.8976s-0.68-0.8197-0.8977-1.3798c-0.1643-0.4229-0.3598-1.0582-0.4132-2.2282-0.0577-1.2654-0.0699-1.6449-0.0699-4.8491 0-3.2041 0.0122-3.5836 0.0699-4.849 0.0534-1.1699 0.2489-1.8053 0.4132-2.2282 0.2177-0.5601 0.4777-0.9598 0.8977-1.3797 0.4199-0.42 0.8196-0.68 1.3797-0.8977 0.4229-0.1643 1.0583-0.3598 2.2283-0.4132 1.2653-0.0577 1.6449-0.0699 4.849-0.0699zm0-2.1622c-3.259 0-3.6677 0.0138-4.9476 0.0722-1.2772 0.0583-2.1496 0.2611-2.9129 0.5578-0.7891 0.3066-1.4583 0.7169-2.1254 1.3841-0.6672 0.6671-1.0775 1.3363-1.3841 2.1254-0.2967 0.7633-0.4995 1.6356-0.5578 2.9129-0.0584 1.2799-0.0722 1.6886-0.0722 4.9475 0 3.2591 0.0138 3.6677 0.0722 4.9476 0.0583 1.2773 0.2611 2.1496 0.5578 2.9129 0.3066 0.7891 0.7169 1.4583 1.3841 2.1255 0.6671 0.6671 1.3363 1.0774 2.1254 1.384 0.7633 0.2967 1.6357 0.4995 2.9129 0.5578 1.2799 0.0584 1.6886 0.0722 4.9476 0.0722s3.6677-0.0138 4.9476-0.0722c1.2772-0.0583 2.1496-0.2611 2.9129-0.5578 0.7891-0.3066 1.4583-0.7169 2.1254-1.384 0.6671-0.6672 1.0775-1.3364 1.3841-2.1255 0.2967-0.7633 0.4995-1.6356 0.5578-2.9129 0.0584-1.2799 0.0722-1.6885 0.0722-4.9476 0-3.2589-0.0138-3.6676-0.0722-4.9475-0.0583-1.2773-0.2611-2.1496-0.5578-2.9129-0.3066-0.7891-0.717-1.4583-1.3841-2.1254-0.6671-0.6672-1.3363-1.0775-2.1254-1.3841-0.7633-0.2967-1.6357-0.4995-2.9129-0.5578-1.2799-0.0584-1.6886-0.0722-4.9476-0.0722z" fill="#fff"/>
<path d="m24.006 17.843c-3.4033 0-6.1621 2.7588-6.1621 6.1621s2.7588 6.1621 6.1621 6.1621 6.1622-2.7588 6.1622-6.1621-2.7589-6.1621-6.1622-6.1621zm0 10.162c-2.2091 0-4-1.7909-4-4s1.7909-4 4-4c2.2092 0 4 1.7909 4 4s-1.7908 4-4 4z" fill="#fff"/>
<path d="m31.851 17.596c0 0.7952-0.6447 1.44-1.44 1.44s-1.44-0.6448-1.44-1.44c0-0.7953 0.6447-1.4401 1.44-1.4401s1.44 0.6448 1.44 1.4401z" fill="#fff"/>
</svg>